# xmcd CD database file
#
# Track frame offsets:
#	150
#	16305
#	33812
#	50650
#	67892
#	85667
#	98677
#	117840
#	130635
#	147262
#	165092
#	181260
#	201840
#	215845
#	232250
#	247105
#	259002
#	278560
#	293975
#	313465
#
# Disc length: 4398 seconds
#
# Revision: 4
# Processed by: cddbd v1.5PL3 Copyright (c) Steve Scherf et al.
# Submitted via: CDex 1.51
#
DISCID=1f112c14
DTITLE=Kenny Rogers - Kenny Rogers Twenty Greatest Hits
DYEAR=1900
DGENRE=Country
TTITLE0=Lucille
TTITLE1=Lady
TTITLE2=Love Lifted Me
TTITLE3=We've Got Tonight
TTITLE4=Scarlet Fever
TTITLE5=Love or Something Like It
TTITLE6=She Believes in Me
TTITLE7=Ruby Don't Take Your Love to Town
TTITLE8=Don't Fall in Love With a Dreamer
TTITLE9=You Were a Good Friend
TTITLE10=The Gambler
TTITLE11=Trough the Years
TTITLE12=Daytime Friends
TTITLE13=You Decorated My Life
TTITLE14='till I Can Make It On My Own
TTITLE15=Ruben James
TTITLE16=Coward of the County
TTITLE17=I Don't Need You
TTITLE18=Something's Burning
TTITLE19=Love Will Turn You Around
EXTD=
EXTT0=
EXTT1=
EXTT2=
EXTT3=
EXTT4=
EXTT5=
EXTT6=
EXTT7=
EXTT8=
EXTT9=
EXTT10=
EXTT11=
EXTT12=
EXTT13=
EXTT14=
EXTT15=
EXTT16=
EXTT17=
EXTT18=
EXTT19=
PLAYORDER=
